<?xml version="1.0" encoding="iso-8859-1"?>
<!-- Generator: Adobe Illustrator 19.0.0, SVG Export Plug-In . SVG Version: 6.00 Build 0)  -->
<svg version="1.1" id="Capa_1" xmlns="http://www.w3.org/2000/svg" xmlns:xlink="http://www.w3.org/1999/xlink" x="0px" y="0px"
	 viewBox="0 0 512 512" style="enable-background:new 0 0 512 512;" xml:space="preserve">
<path style="fill:#4FC0E8;" d="M512,256c0,141.397-114.603,256-256,256S0,397.397,0,256S114.603,0,256,0S512,114.613,512,256z"/>
<path style="fill:#3DAED9;" d="M505.12,315.157L391.232,201.269l-31.584-31.755l-18.133-18.133h-0.181
	c-0.9-2.547-3.303-4.255-6.005-4.267H175.467c-2.813-0.002-5.297,1.834-6.123,4.523L153.013,204.8h-28.8c-3.535,0-6.4,2.865-6.4,6.4
	v25.6c0,3.535,2.865,6.4,6.4,6.4h5.013l-21.333,13.867c-1.807,1.174-2.901,3.179-2.912,5.333v95.296l-0.309,0.768l0.331,0.331
	c0.195,3.245,2.791,5.827,6.037,6.005L257.547,512C377.899,511.275,478.539,427.541,505.12,315.157z"/>
<path style="fill:#F4F6F9;" d="M403.019,257.067L382.261,243.2h4.395c3.535,0,6.4-2.865,6.4-6.4v-25.6c0-3.535-2.865-6.4-6.4-6.4
	h-28.704l-16.501-53.099c-0.832-2.677-3.309-4.501-6.112-4.501H175.467c-2.813-0.002-5.297,1.834-6.123,4.523L153.013,204.8h-28.8
	c-3.535,0-6.4,2.865-6.4,6.4v25.6c0,3.535,2.865,6.4,6.4,6.4h5.013l-21.333,13.867c-1.807,1.174-2.901,3.179-2.912,5.333v96
	c0,3.535,2.865,6.4,6.4,6.4h51.2c3.535,0,6.4-2.865,6.4-6.4v-19.2h172.8v19.2c0,3.535,2.865,6.4,6.4,6.4h51.2
	c3.535,0,6.4-2.865,6.4-6.4v-96C405.804,260.274,404.768,258.275,403.019,257.067z M162.667,326.4h-44.8V320h44.8
	c3.535,0,6.4-2.865,6.4-6.4v-12.8h172.8v12.8c0,3.535,2.865,6.4,6.4,6.4h44.8v6.4H162.667z M117.867,281.6h38.4v25.6h-38.4V281.6z
	 M393.067,307.2h-38.4v-25.6h38.4V307.2z M380.267,217.6v12.8h-14.4l-3.979-12.8H380.267z M180.192,160h150.475l21.877,70.4H158.528
	L180.192,160z M130.667,217.6h18.411l-3.936,12.8h-14.475V217.6z M152.8,243.2h206.443l33.824,22.624v2.976h-44.8
	c-3.535,0-6.4,2.865-6.4,6.4V288h-172.8v-12.8c0-3.535-2.865-6.4-6.4-6.4h-44.8v-2.923L152.8,243.2z M156.267,352h-38.4v-12.8h38.4
	V352z M393.067,352h-38.4v-12.8h38.4V352z"/>
<g>
</g>
<g>
</g>
<g>
</g>
<g>
</g>
<g>
</g>
<g>
</g>
<g>
</g>
<g>
</g>
<g>
</g>
<g>
</g>
<g>
</g>
<g>
</g>
<g>
</g>
<g>
</g>
<g>
</g>
</svg>
