<?xml version="1.0" encoding="iso-8859-1"?>
<!-- Generator: Adobe Illustrator 19.0.0, SVG Export Plug-In . SVG Version: 6.00 Build 0)  -->
<svg version="1.1" id="Capa_1" xmlns="http://www.w3.org/2000/svg" xmlns:xlink="http://www.w3.org/1999/xlink" x="0px" y="0px"
	 viewBox="0 0 436.907 436.907" style="enable-background:new 0 0 436.907 436.907;" xml:space="preserve">
<circle style="fill:#334D5C;" cx="218.453" cy="218.453" r="218.453"/>
<path style="opacity:0.1;enable-background:new    ;" d="M96.157,252.588l177.32,177.32
	c81.036-21.028,143.75-87.416,159.529-170.437l-91.54-91.54l-0.028,0.01c-3.355-3.24-8.089-5.295-13.386-5.295H119.736
	c-5.427,0-10.308,2.901-12.493,7.407L92.225,201.25c-1.092,2.287-1.639,4.745-1.639,7.202h0.58c-0.239,0.921-0.41,1.843-0.478,2.765
	h-0.171v9.796h0.068v14.882C90.586,241.515,89.201,249.18,96.157,252.588z"/>
<path style="fill:#F6C358;" d="M90.574,213.146v28.359c0,7.063,5.726,12.79,12.79,12.79h224.704
	c10.154,0,18.385-8.231,18.385-18.385v-54.889c0-10.154-8.231-18.385-18.385-18.385H119.739c-5.415,0-10.315,3.207-12.482,8.169
	l-15.022,34.394C91.14,207.705,90.574,210.411,90.574,213.146z"/>
<path style="fill:#FCD462;" d="M90.574,208.465c0-2.481,0.565-4.936,1.66-7.21l15.022-31.207c2.167-4.502,7.068-7.412,12.482-7.412
	h208.329c10.154,0,18.385,7.469,18.385,16.681v29.148H90.574z"/>
<path style="fill:#44C4A1;" d="M90.574,235.91c0,7.063-2.265,17.388,12.79,18.385h224.704c10.154,0,18.385-8.231,18.385-18.385"/>
<path style="fill:#E56353;" d="M95.554,235.91h-4.979v-9.816h4.979c1.988,0,3.599,1.611,3.599,3.599v2.618
	C99.153,234.298,97.542,235.91,95.554,235.91z"/>
<path style="fill:#2D93BA;" d="M136.537,178.623v26.778h-33.706l11.283-22.678c1.25-2.512,3.814-4.1,6.62-4.1H136.537z"/>
<path style="fill:#27A2DB;" d="M136.537,205.401v-26.778h-15.804c-2.806,0-5.37,1.588-6.62,4.1L136.537,205.401z"/>
<path style="fill:#64798A;" d="M341.474,235.91h4.979v-9.816h-4.979c-1.988,0-3.599,1.611-3.599,3.599v2.618
	C337.875,234.298,339.486,235.91,341.474,235.91z"/>
<g>
	<rect x="148.125" y="178.637" style="fill:#D5D6DB;" width="37.97" height="26.778"/>
	<rect x="195.741" y="178.637" style="fill:#D5D6DB;" width="37.97" height="26.778"/>
	<rect x="243.391" y="178.637" style="fill:#D5D6DB;" width="37.97" height="26.778"/>
	<rect x="291.007" y="178.637" style="fill:#D5D6DB;" width="37.97" height="26.778"/>
</g>
<g>
	<polygon style="fill:#EBF0F3;" points="148.128,205.401 148.128,178.623 186.097,178.623 	"/>
	<polygon style="fill:#EBF0F3;" points="195.755,205.401 195.755,178.623 233.724,178.623 	"/>
	<polygon style="fill:#EBF0F3;" points="243.383,205.401 243.383,178.623 281.352,178.623 	"/>
	<polygon style="fill:#EBF0F3;" points="291.011,205.401 291.011,178.623 328.98,178.623 	"/>
</g>
<path style="fill:#64798A;" d="M95.493,221.026h-4.979v-9.816h4.979c1.988,0,3.599,1.611,3.599,3.599v2.617
	C99.092,219.414,97.481,221.026,95.493,221.026z"/>
<path style="fill:#E56353;" d="M341.413,221.026h4.979v-9.816h-4.979c-1.988,0-3.599,1.611-3.599,3.599v2.617
	C337.814,219.414,339.426,221.026,341.413,221.026z"/>
<circle style="fill:#2F4859;" cx="303.957" cy="254.293" r="19.975"/>
<circle style="fill:#D5D6DB;" cx="303.957" cy="254.293" r="12.977"/>
<circle style="fill:#3A556A;" cx="303.957" cy="254.293" r="6.653"/>
<circle style="fill:#2F4859;" cx="128.15" cy="254.293" r="19.975"/>
<circle style="fill:#D5D6DB;" cx="128.15" cy="254.293" r="12.977"/>
<circle style="fill:#3A556A;" cx="128.15" cy="254.293" r="6.653"/>
<g>
</g>
<g>
</g>
<g>
</g>
<g>
</g>
<g>
</g>
<g>
</g>
<g>
</g>
<g>
</g>
<g>
</g>
<g>
</g>
<g>
</g>
<g>
</g>
<g>
</g>
<g>
</g>
<g>
</g>
</svg>
